<svg width="42" height="24" viewBox="0 0 42 24" fill="none" xmlns="http://www.w3.org/2000/svg">
<path d="M42.0024 12C42.0024 18.6274 36.6298 24 30.0024 24C26.1362 24 28 24 24 24C24.006 21.5 24.0063 2.76122 24.0063 0C25.5063 0 23.375 0 30.0024 0C36.6298 0 42.0024 5.37258 42.0024 12Z" fill="#652D91"/>
<path d="M0 24V0L11.04 8.76923L23.04 0V24H15.84V12.9231L11.04 17.5385L6.24 12.9231V24H0Z" fill="#F5941D"/>
<path d="M33.6807 9.35836C33.6807 9.88855 34.1105 10.3184 34.6407 10.3184H37.041C37.5712 10.3184 38.001 10.7482 38.001 11.2784V12.7187C38.001 13.2489 37.5712 13.6787 37.041 13.6787H34.6407C34.1105 13.6787 33.6807 14.1085 33.6807 14.6387V17.04C33.6807 17.5702 33.2509 18 32.7207 18H31.2803C30.7501 18 30.3203 17.5702 30.3203 17.04V14.6387C30.3203 14.1085 29.8905 13.6787 29.3603 13.6787H26.96C26.4298 13.6787 26 13.2489 26 12.7187V11.2784C26 10.7482 26.4298 10.3184 26.96 10.3184H29.3603C29.8905 10.3184 30.3203 9.88855 30.3203 9.35836V6.95902C30.3203 6.42883 30.7501 5.99902 31.2803 5.99902H32.7207C33.2509 5.99902 33.6807 6.42883 33.6807 6.95902V9.35836Z" fill="#F5F5F5"/>
</svg>
