<svg width="20" height="20" viewBox="0 0 20 20" fill="none" xmlns="http://www.w3.org/2000/svg">
<path d="M9.64592 2.14604C9.69236 2.09948 9.74754 2.06253 9.80828 2.03733C9.86903 2.01212 9.93415 1.99915 9.99992 1.99915C10.0657 1.99915 10.1308 2.01212 10.1916 2.03733C10.2523 2.06253 10.3075 2.09948 10.3539 2.14604L12.3539 4.14604C12.4478 4.23993 12.5005 4.36726 12.5005 4.50004C12.5005 4.63282 12.4478 4.76015 12.3539 4.85404C12.26 4.94793 12.1327 5.00067 11.9999 5.00067C11.8671 5.00067 11.7398 4.94793 11.6459 4.85404L10.4999 3.70704V6.50004C10.4999 6.63265 10.4472 6.75982 10.3535 6.85359C10.2597 6.94736 10.1325 7.00004 9.99992 7.00004C9.86731 7.00004 9.74013 6.94736 9.64636 6.85359C9.5526 6.75982 9.49992 6.63265 9.49992 6.50004V3.70704L8.35392 4.85404C8.30743 4.90053 8.25224 4.9374 8.1915 4.96256C8.13076 4.98772 8.06566 5.00067 7.99992 5.00067C7.93417 5.00067 7.86907 4.98772 7.80833 4.96256C7.74759 4.9374 7.6924 4.90053 7.64592 4.85404C7.59943 4.80755 7.56255 4.75236 7.53739 4.69162C7.51223 4.63088 7.49929 4.56578 7.49929 4.50004C7.49929 4.4343 7.51223 4.3692 7.53739 4.30846C7.56255 4.24772 7.59943 4.19253 7.64592 4.14604L9.64592 2.14604ZM9.99992 12C10.5303 12 11.0391 11.7893 11.4141 11.4143C11.7892 11.0392 11.9999 10.5305 11.9999 10C11.9999 9.46961 11.7892 8.9609 11.4141 8.58583C11.0391 8.21075 10.5303 8.00004 9.99992 8.00004C9.46948 8.00004 8.96078 8.21075 8.5857 8.58583C8.21063 8.9609 7.99992 9.46961 7.99992 10C7.99992 10.5305 8.21063 11.0392 8.5857 11.4143C8.96078 11.7893 9.46948 12 9.99992 12ZM9.99992 11C9.7347 11 9.48035 10.8947 9.29281 10.7071C9.10527 10.5196 8.99992 10.2653 8.99992 10C8.99992 9.73482 9.10527 9.48047 9.29281 9.29293C9.48035 9.1054 9.7347 9.00004 9.99992 9.00004C10.2651 9.00004 10.5195 9.1054 10.707 9.29293C10.8946 9.48047 10.9999 9.73482 10.9999 10C10.9999 10.2653 10.8946 10.5196 10.707 10.7071C10.5195 10.8947 10.2651 11 9.99992 11ZM15.8539 12.354L17.8539 10.354C17.9005 10.3076 17.9374 10.2524 17.9626 10.1917C17.9878 10.1309 18.0008 10.0658 18.0008 10C18.0008 9.93427 17.9878 9.86915 17.9626 9.80841C17.9374 9.74766 17.9005 9.69248 17.8539 9.64604L15.8539 7.64604C15.76 7.55215 15.6327 7.49941 15.4999 7.49941C15.3671 7.49941 15.2398 7.55215 15.1459 7.64604C15.052 7.73993 14.9993 7.86726 14.9993 8.00004C14.9993 8.13281 15.052 8.26015 15.1459 8.35404L16.2929 9.50004H13.4999C13.3673 9.50004 13.2401 9.55272 13.1464 9.64649C13.0526 9.74025 12.9999 9.86743 12.9999 10C12.9999 10.1326 13.0526 10.2598 13.1464 10.3536C13.2401 10.4474 13.3673 10.5 13.4999 10.5H16.2929L15.1459 11.646C15.052 11.7399 14.9993 11.8673 14.9993 12C14.9993 12.1328 15.052 12.2602 15.1459 12.354C15.2398 12.4479 15.3671 12.5007 15.4999 12.5007C15.6327 12.5007 15.76 12.4479 15.8539 12.354ZM10.3539 17.854L12.3539 15.854C12.4478 15.7602 12.5005 15.6328 12.5005 15.5C12.5005 15.3673 12.4478 15.2399 12.3539 15.146C12.26 15.0522 12.1327 14.9994 11.9999 14.9994C11.8671 14.9994 11.7398 15.0522 11.6459 15.146L10.4999 16.293V13.5C10.4999 13.3674 10.4472 13.2403 10.3535 13.1465C10.2597 13.0527 10.1325 13 9.99992 13C9.86731 13 9.74013 13.0527 9.64636 13.1465C9.5526 13.2403 9.49992 13.3674 9.49992 13.5V16.293L8.35392 15.146C8.26003 15.0522 8.13269 14.9994 7.99992 14.9994C7.86714 14.9994 7.7398 15.0522 7.64592 15.146C7.55203 15.2399 7.49929 15.3673 7.49929 15.5C7.49929 15.6328 7.55203 15.7602 7.64592 15.854L9.64592 17.854C9.69236 17.9006 9.74754 17.9375 9.80828 17.9628C9.86903 17.988 9.93415 18.0009 9.99992 18.0009C10.0657 18.0009 10.1308 17.988 10.1916 17.9628C10.2523 17.9375 10.3075 17.9006 10.3539 17.854ZM2.14592 10.354C2.09935 10.3076 2.06241 10.2524 2.0372 10.1917C2.012 10.1309 1.99902 10.0658 1.99902 10C1.99902 9.93427 2.012 9.86915 2.0372 9.80841C2.06241 9.74766 2.09935 9.69248 2.14592 9.64604L4.14592 7.64604C4.19241 7.59955 4.24759 7.56267 4.30833 7.53752C4.36907 7.51236 4.43417 7.49941 4.49992 7.49941C4.56566 7.49941 4.63076 7.51236 4.6915 7.53752C4.75224 7.56267 4.80743 7.59955 4.85392 7.64604C4.90041 7.69253 4.93728 7.74772 4.96244 7.80846C4.9876 7.86919 5.00055 7.9343 5.00055 8.00004C5.00055 8.06578 4.9876 8.13088 4.96244 8.19162C4.93728 8.25236 4.90041 8.30755 4.85392 8.35404L3.70692 9.50004H6.49992C6.63253 9.50004 6.7597 9.55272 6.85347 9.64649C6.94724 9.74025 6.99992 9.86743 6.99992 10C6.99992 10.1326 6.94724 10.2598 6.85347 10.3536C6.7597 10.4474 6.63253 10.5 6.49992 10.5H3.70692L4.85392 11.646C4.9478 11.7399 5.00055 11.8673 5.00055 12C5.00055 12.1328 4.9478 12.2602 4.85392 12.354C4.76003 12.4479 4.63269 12.5007 4.49992 12.5007C4.36714 12.5007 4.2398 12.4479 4.14592 12.354L2.14592 10.354Z" fill="#652D90"/>
</svg>
